<svg version="1.1" id="Layer_1" xmlns="http://www.w3.org/2000/svg" xmlns:xlink="http://www.w3.org/1999/xlink" x="0px" y="0px"
	 width="100%" viewBox="0 0 512 512" enable-background="new 0 0 512 512" xml:space="preserve">
<path fill="#010101" opacity="1.000000" stroke="none" 
	d="
M299.000000,513.000000 
	C288.979095,513.000000 278.958221,513.000000 268.365143,512.643677 
	C261.551941,510.474640 258.002625,505.914856 258.001678,499.629517 
	C257.995239,456.631897 257.998322,413.634247 257.998322,370.636627 
	C257.998322,368.945526 257.998322,367.254425 257.998322,365.563354 
	C256.950043,367.198212 256.369659,368.840942 256.025452,370.531769 
	C251.970840,390.449677 248.120392,410.410828 243.878204,430.288452 
	C239.104340,452.657288 233.648682,474.885834 229.208054,497.317627 
	C227.743668,504.714996 225.332550,510.325073 218.000000,513.000000 
	C207.979111,513.000000 197.958206,513.000000 187.364960,512.643555 
	C180.169250,510.888824 176.527710,504.567963 177.120789,499.644775 
	C177.967926,492.612488 179.560516,485.661804 180.999207,478.710297 
	C187.304169,448.245605 193.583115,417.775055 200.039062,387.342194 
	C204.885910,364.494568 210.073456,341.719025 214.880951,318.863373 
	C215.576706,315.555695 216.414719,310.873169 214.744781,308.727783 
	C209.020233,301.373444 207.298508,293.617310 208.976303,284.705902 
	C210.293274,277.710999 218.865479,268.244812 225.913971,267.092102 
	C231.824875,266.125458 237.869736,265.977997 243.894852,265.464447 
	C243.894852,257.048706 243.894852,248.739899 243.894852,240.244217 
	C238.441498,241.518982 233.127151,242.754456 227.816116,244.003891 
	C200.725494,250.377060 173.624542,256.706940 146.552765,263.159180 
	C138.858643,264.992981 136.465820,263.920380 134.012497,256.734619 
	C133.650818,255.675247 133.632919,254.297577 132.927811,253.604385 
	C131.919998,252.613571 130.133743,251.232773 129.182449,251.545776 
	C117.390862,255.425629 105.690544,259.582886 93.820412,263.719696 
	C95.189674,267.080597 96.662537,270.121002 97.684326,273.306061 
	C101.550308,285.356812 97.473984,299.091461 85.127060,303.906616 
	C76.342751,307.332397 67.290092,310.083557 58.310822,312.992706 
	C45.712608,317.074280 33.377708,309.182129 29.073074,297.010834 
	C24.480618,284.025726 20.439312,270.846558 15.933709,257.829559 
	C11.091297,243.839478 5.988931,229.939377 0.999998,216.000000 
	C1.000000,211.643097 1.000000,207.286194 1.357747,202.359436 
	C3.330725,195.623734 6.953679,190.692215 12.658558,188.224030 
	C21.443272,184.423355 30.443165,180.951797 39.624294,178.275528 
	C52.978611,174.382782 66.787422,181.175064 70.394226,194.785309 
	C71.233627,197.952744 72.530235,200.998993 73.707306,204.360428 
	C86.289017,200.006256 98.519356,195.773666 111.258690,191.364944 
	C110.682167,189.285324 110.139854,187.158310 109.501816,185.060394 
	C107.759605,179.331833 109.786690,175.436035 115.242004,172.973877 
	C136.850739,163.221176 158.428024,153.397263 179.946564,143.447479 
	C184.533096,141.326767 189.484299,140.873093 192.241547,146.393845 
	C193.505493,152.551376 192.295258,155.037399 186.581390,157.697159 
	C171.747742,164.602097 156.880676,171.435226 141.691895,178.375366 
	C136.411911,180.749496 131.466980,183.045273 126.223625,185.479599 
	C133.367752,206.266907 140.367554,226.634201 147.419540,247.153381 
	C226.342255,228.286255 304.733185,209.546265 383.865692,190.628998 
	C380.802521,182.136337 377.891632,174.065979 374.984436,165.616486 
	C365.750214,138.279572 356.512360,111.321754 347.218536,84.200676 
	C345.181671,85.042908 343.795441,85.563446 342.452728,86.178978 
	C301.679718,104.870308 260.909637,123.567986 220.142792,142.272766 
	C211.867126,146.069839 211.053528,145.953430 204.989716,139.430054 
	C204.219498,134.049484 206.593826,130.971786 210.927002,129.015823 
	C225.817261,122.294502 240.723618,115.608017 255.574631,108.800880 
	C265.194000,104.391731 274.681793,99.695129 284.309448,95.304672 
	C302.238007,87.128799 320.217773,79.064987 338.196899,71.000565 
	C340.914795,69.781487 341.556641,68.499855 340.212494,65.441948 
	C337.771149,59.887920 335.851349,54.071945 334.122162,48.244156 
	C330.163147,34.901039 336.691528,22.106905 348.119324,17.401272 
	C351.225494,16.122234 354.440155,15.103797 357.616119,13.997611 
	C370.075012,9.658162 382.538330,5.331441 395.000000,0.999997 
	C398.361298,1.000000 401.722565,1.000000 405.654480,1.364388 
	C416.359314,4.174066 421.993988,11.036954 425.031067,20.611111 
	C427.599091,28.706709 427.698425,28.637779 435.996429,29.034981 
	C437.414825,29.102875 438.798035,29.721928 440.217987,29.968542 
	C465.820099,34.415146 485.499817,47.801876 499.764648,69.373802 
	C503.164093,74.514595 502.940460,77.838821 498.444336,82.914581 
	C492.326233,84.058495 488.922180,81.492638 485.645874,76.857140 
	C481.769897,71.373253 476.658875,66.762306 471.928223,61.480507 
	C460.658661,51.824947 448.060638,46.148827 432.649597,44.786037 
	C447.052521,86.729156 461.092316,127.614807 475.687775,170.118622 
	C480.282990,163.624680 484.071167,158.271301 488.057159,152.628662 
	C495.811920,138.769272 499.471985,124.360153 497.134125,108.818047 
	C496.265717,103.044823 497.988220,98.831337 503.403809,95.961021 
	C509.382782,95.771309 511.349243,99.704292 513.000000,104.000000 
	C513.000000,112.020897 513.000000,120.041801 512.610718,128.673782 
	C510.926727,134.930908 510.112732,140.741928 508.243103,146.190704 
	C503.471008,160.097824 495.463013,172.014862 484.542572,181.896057 
	C482.183899,184.030212 481.845581,185.938202 482.809235,189.165512 
	C484.455780,194.679901 485.231262,200.495392 485.943176,206.237656 
	C486.865509,213.677414 478.697052,223.879639 472.072144,226.083771 
	C456.423584,231.290161 440.975128,237.109436 425.268524,242.125854 
	C415.453308,245.260620 404.318726,242.037506 399.214111,232.964752 
	C394.950256,225.386322 392.326599,216.847916 389.371002,208.593414 
	C388.492035,206.138687 387.645325,205.688461 385.322754,206.254745 
	C364.278534,211.385742 343.214661,216.435928 322.313660,221.471924 
	C322.313660,236.360809 322.313660,251.098633 322.313660,265.998322 
	C326.774384,265.998322 330.974487,265.601135 335.058838,266.118134 
	C338.627441,266.569855 342.410309,267.439117 345.502594,269.181519 
	C359.646271,277.151001 362.390045,295.972473 351.903046,308.710052 
	C351.118256,309.663239 350.719879,311.428528 350.959351,312.656952 
	C354.570221,331.177704 358.159485,349.705322 362.074371,368.163361 
	C366.886169,390.850220 372.105835,413.450806 376.876160,436.146057 
	C377.723175,440.175751 377.256439,444.494263 371.767181,446.370789 
	C364.109680,445.767578 362.595154,444.602600 361.178802,437.962219 
	C355.736938,412.449341 350.392303,386.915710 344.962067,361.400360 
	C341.756866,346.340210 338.458954,331.299774 335.204895,316.260406 
	C331.361847,316.260406 328.218445,316.260406 324.619873,316.187744 
	C321.230194,316.115112 318.295685,316.115112 315.093964,316.115112 
	C315.258026,317.757324 315.263000,318.740631 315.463684,319.682220 
	C327.564697,376.467865 339.685272,433.249359 351.793732,490.033417 
	C353.635284,498.669434 354.102844,498.987732 363.463989,497.257629 
	C366.964478,497.315674 370.006531,497.315674 373.699249,497.315674 
	C371.904266,488.491638 370.345947,480.723907 368.739655,472.966095 
	C367.270782,465.872253 367.916229,464.369263 374.495789,460.948364 
	C379.443909,460.708740 382.198639,462.373627 383.121307,467.250763 
	C384.463074,474.343231 386.420898,481.316895 387.971985,488.372894 
	C388.803772,492.156860 389.921509,496.014984 389.869934,499.825562 
	C389.781952,506.326294 385.104492,509.953552 380.000000,513.000000 
	C369.645782,513.000000 359.291534,513.000000 348.376709,512.654541 
	C344.613129,509.073334 340.344391,506.349182 338.482117,502.469788 
	C336.249176,497.818268 336.090179,492.176910 334.995728,486.972046 
	C331.484467,470.273895 327.964478,453.577545 324.431458,436.884003 
	C321.632690,423.659668 318.812775,410.439819 315.996460,397.219177 
	C313.884521,387.305115 311.763397,377.392975 309.646362,367.480011 
	C309.431488,367.512695 309.216583,367.545410 309.001678,367.578094 
	C309.001678,369.401367 309.001678,371.224640 309.001678,373.047913 
	C309.001678,413.150024 308.827576,453.253479 309.138214,493.353180 
	C309.206085,502.115967 307.071594,508.863403 299.000000,513.000000 
M122.078590,220.147537 
	C121.001701,216.838959 119.788971,213.566956 118.885696,210.211639 
	C117.961464,206.778458 116.081276,206.286606 112.956451,207.409042 
	C105.625420,210.042343 98.213676,212.450302 90.843216,214.974640 
	C77.180618,219.653961 77.183182,219.661453 83.249763,233.778717 
	C84.977264,238.734619 86.704765,243.690521 88.514412,248.882080 
	C101.657013,244.363617 114.391983,239.985291 127.517082,235.472824 
	C125.558464,230.163010 123.852737,225.538803 122.078590,220.147537 
M281.999176,230.766846 
	C275.540649,232.204453 269.062683,233.563766 262.643494,235.159561 
	C261.617462,235.414627 260.102356,236.714890 260.085938,237.556763 
	C259.903076,246.939301 259.970581,256.326691 259.970581,265.963715 
	C268.134491,265.963715 275.573456,265.963715 283.938934,266.109497 
	C291.485657,266.109497 299.032410,266.109497 306.633698,266.109497 
	C306.633698,251.994553 306.633698,238.640320 306.633698,224.497223 
	C298.388092,226.635452 290.597656,228.655640 281.999176,230.766846 
M342.514740,290.131104 
	C340.837341,283.963684 338.381744,281.550171 332.079803,281.532562 
	C302.669434,281.450439 273.258484,281.592529 243.113251,281.372772 
	C240.123169,281.356659 237.109512,281.092773 234.147812,281.374786 
	C227.481476,282.009460 223.633102,286.134827 223.963501,291.916687 
	C224.282059,297.491547 228.361572,301.033478 234.933289,301.043976 
	C267.181244,301.095490 299.429382,301.102264 331.677277,301.038849 
	C338.634094,301.025177 341.680878,298.021729 342.514740,290.131104 
M240.162689,316.123718 
	C237.231705,316.123718 234.300720,316.123718 231.273987,316.123718 
	C218.375381,376.813141 205.603058,436.908417 192.651688,497.846100 
	C196.665054,497.670044 199.906906,497.527832 203.990540,497.611206 
	C204.822235,497.646973 205.667389,497.599823 206.483444,497.732117 
	C211.453110,498.537811 213.666290,496.825958 214.775345,491.478149 
	C225.272949,440.859253 236.119324,390.312744 246.842422,339.740540 
	C248.453827,332.140900 249.947525,324.516357 251.520203,316.782654 
	C250.300201,316.465179 249.679062,316.167603 249.056824,316.165253 
	C246.395065,316.155243 243.732971,316.232300 240.162689,316.123718 
M282.936188,497.553925 
	C286.192017,497.390411 289.447815,497.226898 292.779205,497.059601 
	C292.779205,436.586609 292.779205,376.610535 292.779205,316.345398 
	C289.010345,316.345398 285.559784,316.345398 281.200836,316.162079 
	C278.621704,316.162079 276.042572,316.162079 273.474182,316.162079 
	C273.294220,317.587128 273.140656,318.235870 273.140503,318.884674 
	C273.127045,377.028473 273.150360,435.172333 273.062164,493.316010 
	C273.056732,496.880646 274.343964,498.213135 277.739258,497.819092 
	C279.216431,497.647644 280.697357,497.508392 282.936188,497.553925 
M77.254074,263.116394 
	C70.823982,244.265427 64.388802,225.416214 57.965389,206.562958 
	C52.744522,191.239288 50.883018,190.388153 34.995018,196.645157 
	C31.064957,197.975418 27.096533,199.203369 23.213520,200.659134 
	C16.847027,203.045975 14.919476,206.740295 17.084072,213.103073 
	C25.959555,239.192459 34.925037,265.251465 43.944695,291.291412 
	C46.149792,297.657593 50.013939,299.589508 56.380730,297.564758 
	C63.182030,295.401764 69.934547,293.068146 76.632965,290.604034 
	C82.609123,288.405670 84.517426,284.490479 82.584152,278.382874 
	C81.035744,273.491150 79.136032,268.710632 77.254074,263.116394 
M372.671844,25.746445 
	C367.463623,27.468409 362.234283,29.129564 357.052063,30.926550 
	C349.216614,33.643570 347.273773,37.601013 349.943512,45.546665 
	C353.599030,56.426121 357.352173,67.272827 361.077911,78.128609 
	C377.114899,124.855988 393.153778,171.582687 409.200928,218.306564 
	C411.846039,226.008255 415.463196,228.915070 421.922302,226.870407 
	C436.503510,222.254669 450.934296,217.141037 465.307251,211.903305 
	C469.911102,210.225586 471.558929,205.969208 470.190582,201.271255 
	C469.170166,197.767975 467.823639,194.359711 466.475830,190.113846 
	C455.817902,158.981003 445.165344,127.846313 434.500336,96.715919 
	C426.313293,72.818527 418.128265,48.920418 409.903503,25.036007 
	C407.541229,18.175976 404.068878,15.400867 398.204254,17.098587 
	C389.796692,19.532465 381.657288,22.892811 372.671844,25.746445 
z"/>
<path fill="#FFFFFF" opacity="1.000000" stroke="none" 
	d="
M394.531342,0.999997 
	C382.538330,5.331441 370.075012,9.658162 357.616119,13.997611 
	C354.440155,15.103797 351.225494,16.122234 348.119324,17.401272 
	C336.691528,22.106905 330.163147,34.901039 334.122162,48.244156 
	C335.851349,54.071945 337.771149,59.887920 340.212494,65.441948 
	C341.556641,68.499855 340.914795,69.781487 338.196899,71.000565 
	C320.217773,79.064987 302.238007,87.128799 284.309448,95.304672 
	C274.681793,99.695129 265.194000,104.391731 255.574631,108.800880 
	C240.723618,115.608017 225.817261,122.294502 210.927002,129.015823 
	C206.593826,130.971786 204.219498,134.049484 204.664917,139.586578 
	C200.303055,142.112534 196.273422,144.068253 192.243774,146.023972 
	C189.484299,140.873093 184.533096,141.326767 179.946564,143.447479 
	C158.428024,153.397263 136.850739,163.221176 115.242004,172.973877 
	C109.786690,175.436035 107.759605,179.331833 109.501816,185.060394 
	C110.139854,187.158310 110.682167,189.285324 111.258690,191.364944 
	C98.519356,195.773666 86.289017,200.006256 73.707306,204.360428 
	C72.530235,200.998993 71.233627,197.952744 70.394226,194.785309 
	C66.787422,181.175064 52.978611,174.382782 39.624294,178.275528 
	C30.443165,180.951797 21.443272,184.423355 12.658558,188.224030 
	C6.953679,190.692215 3.330725,195.623734 1.357747,201.894775 
	C1.000000,135.049286 1.000000,68.098557 1.000000,1.000000 
	C132.020859,1.000000 263.041779,1.000000 394.531342,0.999997 
z"/>
<path fill="#FFFFFF" opacity="1.000000" stroke="none" 
	d="
M0.999998,216.468658 
	C5.988931,229.939377 11.091297,243.839478 15.933709,257.829559 
	C20.439312,270.846558 24.480618,284.025726 29.073074,297.010834 
	C33.377708,309.182129 45.712608,317.074280 58.310822,312.992706 
	C67.290092,310.083557 76.342751,307.332397 85.127060,303.906616 
	C97.473984,299.091461 101.550308,285.356812 97.684326,273.306061 
	C96.662537,270.121002 95.189674,267.080597 93.820412,263.719696 
	C105.690544,259.582886 117.390862,255.425629 129.182449,251.545776 
	C130.133743,251.232773 131.919998,252.613571 132.927811,253.604385 
	C133.632919,254.297577 133.650818,255.675247 134.012497,256.734619 
	C136.465820,263.920380 138.858643,264.992981 146.552765,263.159180 
	C173.624542,256.706940 200.725494,250.377060 227.816116,244.003891 
	C233.127151,242.754456 238.441498,241.518982 243.894852,240.244217 
	C243.894852,248.739899 243.894852,257.048706 243.894852,265.464447 
	C237.869736,265.977997 231.824875,266.125458 225.913971,267.092102 
	C218.865479,268.244812 210.293274,277.710999 208.976303,284.705902 
	C207.298508,293.617310 209.020233,301.373444 214.744781,308.727783 
	C216.414719,310.873169 215.576706,315.555695 214.880951,318.863373 
	C210.073456,341.719025 204.885910,364.494568 200.039062,387.342194 
	C193.583115,417.775055 187.304169,448.245605 180.999207,478.710297 
	C179.560516,485.661804 177.967926,492.612488 177.120789,499.644775 
	C176.527710,504.567963 180.169250,510.888824 186.896301,512.643555 
	C125.056183,513.000000 63.112373,513.000000 1.000000,513.000000 
	C1.000000,414.312500 1.000000,315.624908 0.999998,216.468658 
z"/>
<path fill="#FFFFFF" opacity="1.000000" stroke="none" 
	d="
M380.468658,513.000000 
	C385.104492,509.953552 389.781952,506.326294 389.869934,499.825562 
	C389.921509,496.014984 388.803772,492.156860 387.971985,488.372894 
	C386.420898,481.316895 384.463074,474.343231 383.121307,467.250763 
	C382.198639,462.373627 379.443909,460.708740 374.465210,460.533325 
	C373.414703,455.450012 372.799469,450.824677 372.184265,446.199371 
	C377.256439,444.494263 377.723175,440.175751 376.876160,436.146057 
	C372.105835,413.450806 366.886169,390.850220 362.074371,368.163361 
	C358.159485,349.705322 354.570221,331.177704 350.959351,312.656952 
	C350.719879,311.428528 351.118256,309.663239 351.903046,308.710052 
	C362.390045,295.972473 359.646271,277.151001 345.502594,269.181519 
	C342.410309,267.439117 338.627441,266.569855 335.058838,266.118134 
	C330.974487,265.601135 326.774384,265.998322 322.313660,265.998322 
	C322.313660,251.098633 322.313660,236.360809 322.313660,221.471924 
	C343.214661,216.435928 364.278534,211.385742 385.322754,206.254745 
	C387.645325,205.688461 388.492035,206.138687 389.371002,208.593414 
	C392.326599,216.847916 394.950256,225.386322 399.214111,232.964752 
	C404.318726,242.037506 415.453308,245.260620 425.268524,242.125854 
	C440.975128,237.109436 456.423584,231.290161 472.072144,226.083771 
	C478.697052,223.879639 486.865509,213.677414 485.943176,206.237656 
	C485.231262,200.495392 484.455780,194.679901 482.809235,189.165512 
	C481.845581,185.938202 482.183899,184.030212 484.542572,181.896057 
	C495.463013,172.014862 503.471008,160.097824 508.243103,146.190704 
	C510.112732,140.741928 510.926727,134.930908 512.610718,129.142426 
	C513.000000,256.891632 513.000000,384.783295 513.000000,513.000000 
	C468.979645,513.000000 424.958466,513.000000 380.468658,513.000000 
z"/>
<path fill="#FFFFFF" opacity="1.000000" stroke="none" 
	d="
M513.000000,103.531342 
	C511.349243,99.704292 509.382782,95.771309 503.400024,95.573341 
	C501.624847,91.073563 500.249878,86.993790 498.874878,82.914017 
	C502.940460,77.838821 503.164093,74.514595 499.764648,69.373802 
	C485.499817,47.801876 465.820099,34.415146 440.217987,29.968542 
	C438.798035,29.721928 437.414825,29.102875 435.996429,29.034981 
	C427.698425,28.637779 427.599091,28.706709 425.031067,20.611111 
	C421.993988,11.036954 416.359314,4.174066 406.112549,1.364388 
	C441.592224,1.000000 477.184448,1.000000 513.000000,1.000000 
	C513.000000,35.020569 513.000000,69.041626 513.000000,103.531342 
z"/>
<path fill="#FFFFFF" opacity="1.000000" stroke="none" 
	d="
M218.468658,513.000000 
	C225.332550,510.325073 227.743668,504.714996 229.208054,497.317627 
	C233.648682,474.885834 239.104340,452.657288 243.878204,430.288452 
	C248.120392,410.410828 251.970840,390.449677 256.025452,370.531769 
	C256.369659,368.840942 256.950043,367.198212 257.998322,365.563354 
	C257.998322,367.254425 257.998322,368.945526 257.998322,370.636627 
	C257.998322,413.634247 257.995239,456.631897 258.001678,499.629517 
	C258.002625,505.914856 261.551941,510.474640 267.896484,512.643677 
	C251.645767,513.000000 235.291550,513.000000 218.468658,513.000000 
z"/>
<path fill="#FFFFFF" opacity="1.000000" stroke="none" 
	d="
M299.468658,513.000000 
	C307.071594,508.863403 309.206085,502.115967 309.138214,493.353180 
	C308.827576,453.253479 309.001678,413.150024 309.001678,373.047913 
	C309.001678,371.224640 309.001678,369.401367 309.001678,367.578094 
	C309.216583,367.545410 309.431488,367.512695 309.646362,367.480011 
	C311.763397,377.392975 313.884521,387.305115 315.996460,397.219177 
	C318.812775,410.439819 321.632690,423.659668 324.431458,436.884003 
	C327.964478,453.577545 331.484467,470.273895 334.995728,486.972046 
	C336.090179,492.176910 336.249176,497.818268 338.482117,502.469788 
	C340.344391,506.349182 344.613129,509.073334 347.908020,512.654541 
	C331.979095,513.000000 315.958221,513.000000 299.468658,513.000000 
z"/>
<path fill="#FA5858" opacity="1.000000" stroke="none" 
	d="
M192.241547,146.393845 
	C196.273422,144.068253 200.303055,142.112534 204.657516,140.000275 
	C211.053528,145.953430 211.867126,146.069839 220.142792,142.272766 
	C260.909637,123.567986 301.679718,104.870308 342.452728,86.178978 
	C343.795441,85.563446 345.181671,85.042908 347.218536,84.200676 
	C356.512360,111.321754 365.750214,138.279572 374.585327,165.626526 
	C359.697479,169.422028 345.199890,172.776276 330.729706,176.244843 
	C292.618408,185.380341 254.520401,194.571335 216.414230,203.728302 
	C198.564072,208.017700 180.708374,212.284012 162.852921,216.551392 
	C156.846512,217.986908 155.156250,217.050110 153.199188,211.272873 
	C149.475586,200.280777 145.751083,189.288956 142.026947,178.297028 
	C156.880676,171.435226 171.747742,164.602097 186.581390,157.697159 
	C192.295258,155.037399 193.505493,152.551376 192.241547,146.393845 
z"/>
<path fill="#F24545" opacity="1.000000" stroke="none" 
	d="
M141.691895,178.375366 
	C145.751083,189.288956 149.475586,200.280777 153.199188,211.272873 
	C155.156250,217.050110 156.846512,217.986908 162.852921,216.551392 
	C180.708374,212.284012 198.564072,208.017700 216.414230,203.728302 
	C254.520401,194.571335 292.618408,185.380341 330.729706,176.244843 
	C345.199890,172.776276 359.697479,169.422028 374.581665,166.005646 
	C377.891632,174.065979 380.802521,182.136337 383.865692,190.628998 
	C304.733185,209.546265 226.342255,228.286255 147.419540,247.153381 
	C140.367554,226.634201 133.367752,206.266907 126.223625,185.479599 
	C131.466980,183.045273 136.411911,180.749496 141.691895,178.375366 
z"/>
<path fill="#D53030" opacity="1.000000" stroke="none" 
	d="
M466.622345,190.909119 
	C467.823639,194.359711 469.170166,197.767975 470.190582,201.271255 
	C471.558929,205.969208 469.911102,210.225586 465.307251,211.903305 
	C450.934296,217.141037 436.503510,222.254669 421.922302,226.870407 
	C415.463196,228.915070 411.846039,226.008255 409.200928,218.306564 
	C393.153778,171.582687 377.114899,124.855988 361.077911,78.128609 
	C357.352173,67.272827 353.599030,56.426121 349.943512,45.546665 
	C347.273773,37.601013 349.216614,33.643570 357.052063,30.926550 
	C362.234283,29.129564 367.463623,27.468409 373.405884,25.960068 
	C375.770416,30.329815 377.557190,34.432236 379.006866,38.650486 
	C391.480164,74.945480 403.888977,111.262634 416.325256,147.570343 
	C420.524536,159.830109 424.723175,172.090195 428.967102,184.334534 
	C432.362030,194.129379 440.168457,198.523224 450.005280,195.960800 
	C455.603058,194.502609 461.087097,192.607483 466.622345,190.909119 
z"/>
<path fill="#F34545" opacity="1.000000" stroke="none" 
	d="
M466.549072,190.511475 
	C461.087097,192.607483 455.603058,194.502609 450.005280,195.960800 
	C440.168457,198.523224 432.362030,194.129379 428.967102,184.334534 
	C424.723175,172.090195 420.524536,159.830109 416.325256,147.570343 
	C403.888977,111.262634 391.480164,74.945480 379.006866,38.650486 
	C377.557190,34.432236 375.770416,30.329815 373.771667,26.015648 
	C381.657288,22.892811 389.796692,19.532465 398.204254,17.098587 
	C404.068878,15.400867 407.541229,18.175976 409.903503,25.036007 
	C418.128265,48.920418 426.313293,72.818527 434.500336,96.715919 
	C445.165344,127.846313 455.817902,158.981003 466.549072,190.511475 
z"/>
<path fill="#F24545" opacity="1.000000" stroke="none" 
	d="
M77.392227,263.880768 
	C79.136032,268.710632 81.035744,273.491150 82.584152,278.382874 
	C84.517426,284.490479 82.609123,288.405670 76.632965,290.604034 
	C69.934547,293.068146 63.182030,295.401764 56.380730,297.564758 
	C50.013939,299.589508 46.149792,297.657593 43.944695,291.291412 
	C34.925037,265.251465 25.959555,239.192459 17.084072,213.103073 
	C14.919476,206.740295 16.847027,203.045975 23.213520,200.659134 
	C27.096533,199.203369 31.064957,197.975418 35.534088,196.938263 
	C42.083370,214.737167 48.324654,232.168121 54.025970,249.773926 
	C58.113049,262.394928 65.337112,267.078644 77.392227,263.880768 
z"/>
<path fill="#595454" opacity="1.000000" stroke="none" 
	d="
M487.859314,152.917923 
	C484.071167,158.271301 480.282990,163.624680 475.687775,170.118622 
	C461.092316,127.614807 447.052521,86.729156 432.649597,44.786037 
	C448.060638,46.148827 460.658661,51.824947 471.730774,61.784882 
	C462.897919,66.097481 459.783783,72.784203 462.928375,82.111763 
	C470.563721,104.760094 478.353729,127.356369 486.124664,149.958740 
	C486.489044,151.018646 487.271545,151.934814 487.859314,152.917923 
z"/>
<path fill="#726D6D" opacity="1.000000" stroke="none" 
	d="
M371.767181,446.370789 
	C372.799469,450.824677 373.414703,455.450012 374.060516,460.490326 
	C367.916229,464.369263 367.270782,465.872253 368.739655,472.966095 
	C370.345947,480.723907 371.904266,488.491638 373.699249,497.315674 
	C370.006531,497.315674 366.964478,497.315674 363.424072,496.851044 
	C358.621490,476.499969 354.274323,456.622650 350.023102,436.724884 
	C343.733124,407.284882 337.458801,377.841309 331.288300,348.376129 
	C329.053619,337.705139 327.136841,326.967590 325.075043,316.260406 
	C328.218445,316.260406 331.361847,316.260406 335.204895,316.260406 
	C338.458954,331.299774 341.756866,346.340210 344.962067,361.400360 
	C350.392303,386.915710 355.736938,412.449341 361.178802,437.962219 
	C362.595154,444.602600 364.109680,445.767578 371.767181,446.370789 
z"/>
<path fill="#736E6E" opacity="1.000000" stroke="none" 
	d="
M282.109192,316.345398 
	C285.559784,316.345398 289.010345,316.345398 292.779205,316.345398 
	C292.779205,376.610535 292.779205,436.586609 292.779205,497.059601 
	C289.447815,497.226898 286.192017,497.390411 282.497681,497.045166 
	C282.039032,486.720184 281.996887,476.903931 282.002502,467.087677 
	C282.031281,416.840240 282.072388,366.592834 282.109192,316.345398 
z"/>
<path fill="#716C6C" opacity="1.000000" stroke="none" 
	d="
M241.071014,316.277618 
	C243.732971,316.232300 246.395065,316.155243 249.056824,316.165253 
	C249.679062,316.167603 250.300201,316.465179 251.520203,316.782654 
	C249.947525,324.516357 248.453827,332.140900 246.842422,339.740540 
	C236.119324,390.312744 225.272949,440.859253 214.775345,491.478149 
	C213.666290,496.825958 211.453110,498.537811 206.483444,497.732117 
	C205.667389,497.599823 204.822235,497.646973 203.521103,497.128235 
	C206.254593,480.955811 209.398285,465.253967 212.673828,449.579681 
	C218.081268,423.703491 223.539520,397.837799 229.042145,371.981720 
	C232.996246,353.401886 237.057541,334.844818 241.071014,316.277618 
z"/>
<path fill="#726D6D" opacity="1.000000" stroke="none" 
	d="
M488.057159,152.628662 
	C487.271545,151.934814 486.489044,151.018646 486.124664,149.958740 
	C478.353729,127.356369 470.563721,104.760094 462.928375,82.111763 
	C459.783783,72.784203 462.897919,66.097481 471.885773,62.077347 
	C476.658875,66.762306 481.769897,71.373253 485.645874,76.857140 
	C488.922180,81.492638 492.326233,84.058495 498.444336,82.914581 
	C500.249878,86.993790 501.624847,91.073563 503.003601,95.541016 
	C497.988220,98.831337 496.265717,103.044823 497.134125,108.818047 
	C499.471985,124.360153 495.811920,138.769272 488.057159,152.628662 
z"/>
<path fill="#595454" opacity="1.000000" stroke="none" 
	d="
M324.619873,316.187744 
	C327.136841,326.967590 329.053619,337.705139 331.288300,348.376129 
	C337.458801,377.841309 343.733124,407.284882 350.023102,436.724884 
	C354.274323,456.622650 358.621490,476.499969 362.965668,496.793030 
	C354.102844,498.987732 353.635284,498.669434 351.793732,490.033417 
	C339.685272,433.249359 327.564697,376.467865 315.463684,319.682220 
	C315.263000,318.740631 315.258026,317.757324 315.093964,316.115112 
	C318.295685,316.115112 321.230194,316.115112 324.619873,316.187744 
z"/>
<path fill="#595454" opacity="1.000000" stroke="none" 
	d="
M240.616852,316.200684 
	C237.057541,334.844818 232.996246,353.401886 229.042145,371.981720 
	C223.539520,397.837799 218.081268,423.703491 212.673828,449.579681 
	C209.398285,465.253967 206.254593,480.955811 203.100220,497.015442 
	C199.906906,497.527832 196.665054,497.670044 192.651688,497.846100 
	C205.603058,436.908417 218.375381,376.813141 231.273987,316.123718 
	C234.300720,316.123718 237.231705,316.123718 240.616852,316.200684 
z"/>
<path fill="#565151" opacity="1.000000" stroke="none" 
	d="
M281.655029,316.253723 
	C282.072388,366.592834 282.031281,416.840240 282.002502,467.087677 
	C281.996887,476.903931 282.039032,486.720184 282.117859,496.945465 
	C280.697357,497.508392 279.216431,497.647644 277.739258,497.819092 
	C274.343964,498.213135 273.056732,496.880646 273.062164,493.316010 
	C273.150360,435.172333 273.127045,377.028473 273.140503,318.884674 
	C273.140656,318.235870 273.294220,317.587128 273.474182,316.162079 
	C276.042572,316.162079 278.621704,316.162079 281.655029,316.253723 
z"/>
<path fill="#D13030" opacity="1.000000" stroke="none" 
	d="
M342.560242,290.923523 
	C341.680878,298.021729 338.634094,301.025177 331.677277,301.038849 
	C299.429382,301.102264 267.181244,301.095490 234.933289,301.043976 
	C228.361572,301.033478 224.282059,297.491547 223.963501,291.916687 
	C223.633102,286.134827 227.481476,282.009460 234.147812,281.374786 
	C237.109512,281.092773 240.123169,281.356659 243.541351,281.890717 
	C246.868774,288.129822 251.635666,290.976471 257.939240,290.983948 
	C286.146179,291.017395 314.353241,290.952728 342.560242,290.923523 
z"/>
<path fill="#F95757" opacity="1.000000" stroke="none" 
	d="
M77.323151,263.498596 
	C65.337112,267.078644 58.113049,262.394928 54.025970,249.773926 
	C48.324654,232.168121 42.083370,214.737167 35.914661,196.850159 
	C50.883018,190.388153 52.744522,191.239288 57.965389,206.562958 
	C64.388802,225.416214 70.823982,244.265427 77.323151,263.498596 
z"/>
<path fill="#726D6D" opacity="1.000000" stroke="none" 
	d="
M282.807220,230.675812 
	C290.597656,228.655640 298.388092,226.635452 306.633698,224.497223 
	C306.633698,238.640320 306.633698,251.994553 306.633698,266.109497 
	C299.032410,266.109497 291.485657,266.109497 283.474854,265.571106 
	C282.942902,253.580399 282.875061,242.128098 282.807220,230.675812 
z"/>
<path fill="#F44545" opacity="1.000000" stroke="none" 
	d="
M342.537476,290.527313 
	C314.353241,290.952728 286.146179,291.017395 257.939240,290.983948 
	C251.635666,290.976471 246.868774,288.129822 243.908600,282.031555 
	C273.258484,281.592529 302.669434,281.450439 332.079803,281.532562 
	C338.381744,281.550171 340.837341,283.963684 342.537476,290.527313 
z"/>
<path fill="#5A5555" opacity="1.000000" stroke="none" 
	d="
M282.403198,230.721329 
	C282.875061,242.128098 282.942902,253.580399 283.011597,265.498199 
	C275.573456,265.963715 268.134491,265.963715 259.970581,265.963715 
	C259.970581,256.326691 259.903076,246.939301 260.085938,237.556763 
	C260.102356,236.714890 261.617462,235.414627 262.643494,235.159561 
	C269.062683,233.563766 275.540649,232.204453 282.403198,230.721329 
z"/>
<path fill="#716C6C" opacity="1.000000" stroke="none" 
	d="
M122.147011,220.914581 
	C123.852737,225.538803 125.558464,230.163010 127.517082,235.472824 
	C114.391983,239.985291 101.657013,244.363617 88.514412,248.882080 
	C86.704765,243.690521 84.977264,238.734619 83.622925,233.405441 
	C85.416092,232.651398 86.855431,232.330658 88.253029,231.880356 
	C99.555458,228.238861 110.850037,224.573013 122.147011,220.914581 
z"/>
<path fill="#595454" opacity="1.000000" stroke="none" 
	d="
M122.112801,220.531067 
	C110.850037,224.573013 99.555458,228.238861 88.253029,231.880356 
	C86.855431,232.330658 85.416092,232.651398 83.616295,233.044464 
	C77.183182,219.661453 77.180618,219.653961 90.843216,214.974640 
	C98.213676,212.450302 105.625420,210.042343 112.956451,207.409042 
	C116.081276,206.286606 117.961464,206.778458 118.885696,210.211639 
	C119.788971,213.566956 121.001701,216.838959 122.112801,220.531067 
z"/>
</svg>